<?xml version="1.0" encoding="UTF-8"?>
<svg id="Layer_1" data-name="Layer 1" xmlns="http://www.w3.org/2000/svg" viewBox="0 0 163 55">
  <defs>
    <style>
      .cls-1 {
        fill: #2b388f;
        stroke-width: 0px;
      }
    </style>
  </defs>
  <g>
    <g>
      <g>
        <path class="cls-1" d="m28.17,40.69h2.67c0,1.02-.21,1.75-.83,2.33-.54.5-1.16.65-1.82.65-.93,0-1.57-.34-1.99-.77-.39-.39-.74-1.02-.74-1.87s.33-1.5.78-1.94c.43-.43,1.09-.76,2.01-.76.48,0,1,.11,1.4.35.4.25.74.66.92,1.06l-1.28.53c-.09-.24-.24-.41-.37-.52-.22-.19-.47-.26-.72-.26-.32,0-.64.12-.88.36-.3.3-.45.78-.45,1.19,0,.47.17.86.41,1.12.25.26.55.4.95.4.23,0,.5-.04.74-.24.12-.1.27-.29.32-.57h-1.1v-1.05Z"/>
        <path class="cls-1" d="m32.81,37.97v5.65h-1.24v-5.65h1.24Z"/>
        <path class="cls-1" d="m37.15,43.17c-.46.45-.99.57-1.55.57-.5,0-1.06-.1-1.54-.57-.38-.37-.54-.81-.54-1.28,0-.62.28-1.02.54-1.27.29-.28.79-.57,1.54-.57s1.26.3,1.55.57c.26.25.54.65.54,1.27,0,.47-.16.91-.54,1.28Zm-2.1-1.85c-.16.15-.24.36-.24.57s.1.41.24.55c.15.15.35.23.56.23s.4-.09.55-.23c.16-.15.24-.35.24-.55,0-.19-.09-.41-.24-.57-.14-.13-.36-.22-.55-.22s-.42.09-.56.22Z"/>
        <path class="cls-1" d="m39.64,37.97v2.52c.22-.24.56-.45,1.03-.45.43,0,.88.14,1.23.47.32.3.57.78.57,1.37,0,.55-.21,1.04-.56,1.38-.33.32-.72.48-1.22.48-.24,0-.7-.05-1.05-.5v.38h-1.24v-5.65h1.24Zm1.31,4.48c.16-.16.24-.36.24-.54,0-.23-.1-.45-.24-.59-.11-.11-.29-.22-.55-.22-.23,0-.43.09-.57.23-.12.13-.23.36-.23.56,0,.21.1.44.26.59.13.12.33.21.54.21.18,0,.38-.06.55-.23Z"/>
        <path class="cls-1" d="m45.86,40.16h1.24v3.47h-1.24v-.38c-.29.4-.74.5-1.08.5-.37,0-.83-.11-1.25-.55-.33-.36-.5-.75-.5-1.27,0-.65.26-1.11.54-1.39.29-.29.75-.49,1.25-.49.56,0,.89.29,1.04.45v-.33Zm-1.3,1.16c-.17.16-.25.39-.25.57,0,.2.09.42.24.57.13.12.35.23.56.23s.4-.09.56-.24c.11-.11.23-.28.23-.56,0-.16-.05-.38-.24-.57-.12-.11-.29-.22-.56-.22-.16,0-.36.05-.54.22Z"/>
        <path class="cls-1" d="m49.19,37.97v5.65h-1.24v-5.65h1.24Z"/>
        <path class="cls-1" d="m56.62,42.97c-.53.5-1.27.77-2.04.77s-1.51-.26-2.04-.77c-.55-.53-.81-1.25-.81-1.93s.26-1.42.81-1.94c.53-.5,1.27-.77,2.04-.77s1.51.26,2.04.77c.55.52.81,1.25.81,1.94s-.26,1.4-.81,1.93Zm-3.09-2.92c-.28.27-.41.65-.41,1.02,0,.46.22.78.41.96.25.24.6.41,1.05.41s.8-.16,1.04-.4.42-.6.42-.99-.18-.76-.42-.99c-.29-.27-.68-.41-1.04-.41s-.77.13-1.05.41Z"/>
        <path class="cls-1" d="m59.41,40.16v1.94c0,.14.02.36.19.5.12.11.29.13.43.13.16,0,.3-.02.44-.15.16-.16.18-.33.18-.49v-1.94h1.24v2.16c0,.29-.02.61-.33.93-.43.44-1.02.49-1.5.49-.52,0-1.16-.05-1.57-.5-.26-.28-.33-.59-.33-.92v-2.16h1.24Z"/>
        <path class="cls-1" d="m64.12,41.17v2.45h-1.24v-2.45h-.4v-1.02h.4v-1.14h1.24v1.14h.71v1.02h-.71Z"/>
        <path class="cls-1" d="m66.53,37.97v5.65h-1.24v-5.65h1.24Z"/>
        <path class="cls-1" d="m70.87,43.17c-.46.45-.99.57-1.55.57-.5,0-1.06-.1-1.54-.57-.38-.37-.54-.81-.54-1.28,0-.62.28-1.02.54-1.27.29-.28.79-.57,1.54-.57s1.26.3,1.55.57c.26.25.54.65.54,1.27,0,.47-.16.91-.54,1.28Zm-2.1-1.85c-.16.15-.24.36-.24.57s.1.41.24.55c.15.15.35.23.56.23s.4-.09.55-.23c.16-.15.24-.35.24-.55,0-.19-.09-.41-.24-.57-.14-.13-.36-.22-.55-.22s-.42.09-.56.22Z"/>
        <path class="cls-1" d="m75.61,43.17c-.46.45-.99.57-1.55.57-.5,0-1.06-.1-1.54-.57-.38-.37-.54-.81-.54-1.28,0-.62.28-1.02.54-1.27.29-.28.79-.57,1.54-.57s1.26.3,1.55.57c.26.25.54.65.54,1.27,0,.47-.16.91-.54,1.28Zm-2.1-1.85c-.16.15-.24.36-.24.57s.1.41.24.55c.15.15.35.23.56.23s.4-.09.55-.23c.16-.15.24-.35.24-.55,0-.19-.09-.41-.24-.57-.14-.13-.36-.22-.55-.22s-.42.09-.56.22Z"/>
        <path class="cls-1" d="m78.1,37.97v3.44l1.17-1.25h1.68l-1.64,1.6,1.77,1.87h-1.72l-1.26-1.42v1.42h-1.24v-5.65h1.24Z"/>
      </g>
      <path class="cls-1" d="m84.33,36.98h1.01v7.76h-1.01v-7.76Z"/>
      <g>
        <path class="cls-1" d="m90.46,38.45v5.17h-1.34v-5.17h1.34Z"/>
        <path class="cls-1" d="m91.43,40.16h1.24v.43c.34-.45.8-.51,1.1-.51.36,0,.74.09,1.02.37.29.29.33.59.33.97v2.2h-1.24v-1.75c0-.2,0-.5-.16-.67-.12-.12-.27-.15-.4-.15-.19,0-.36.07-.46.16-.12.12-.2.34-.2.55v1.86h-1.24v-3.47Z"/>
        <path class="cls-1" d="m99.89,43.63h-1.24v-.38c-.35.45-.81.5-1.05.5-.5,0-.89-.16-1.22-.48-.35-.34-.56-.83-.56-1.38,0-.59.25-1.07.57-1.37.34-.33.8-.47,1.23-.47.47,0,.81.21,1.03.45v-2.52h1.24v5.65Zm-1.47-1.15c.16-.15.26-.38.26-.59,0-.19-.11-.43-.23-.56-.14-.15-.33-.23-.57-.23-.26,0-.44.12-.55.22-.14.14-.24.36-.24.59,0,.18.08.38.24.54.17.17.37.23.55.23.2,0,.4-.09.54-.21Z"/>
        <path class="cls-1" d="m101.37,38.02c.39,0,.7.31.7.7s-.31.7-.7.7-.7-.31-.7-.7.31-.7.7-.7Zm.62,2.14v3.47h-1.24v-3.47h1.24Z"/>
        <path class="cls-1" d="m105.52,40.16h1.24v3.47h-1.24v-.38c-.29.4-.74.5-1.08.5-.37,0-.83-.11-1.25-.55-.33-.36-.5-.75-.5-1.27,0-.65.26-1.11.54-1.39.29-.29.75-.49,1.25-.49.56,0,.89.29,1.04.45v-.33Zm-1.3,1.16c-.17.16-.25.39-.25.57,0,.2.09.42.24.57.13.12.35.23.56.23s.4-.09.56-.24c.11-.11.23-.28.23-.56,0-.16-.05-.38-.24-.57-.12-.11-.29-.22-.56-.22-.16,0-.36.05-.54.22Z"/>
        <path class="cls-1" d="m107.61,40.16h1.24v.43c.34-.45.8-.51,1.1-.51.36,0,.74.09,1.02.37s.33.59.33.97v2.2h-1.24v-1.75c0-.2,0-.5-.16-.67-.12-.12-.27-.15-.4-.15-.19,0-.36.07-.46.16-.12.12-.2.34-.2.55v1.86h-1.24v-3.47Z"/>
        <path class="cls-1" d="m114.99,38.45l1.24,3.15,1.26-3.15h1.46l-2.2,5.17h-1.05l-2.17-5.17h1.47Z"/>
        <path class="cls-1" d="m121.59,40.16h1.24v3.47h-1.24v-.38c-.29.4-.74.5-1.08.5-.37,0-.83-.11-1.25-.55-.33-.36-.5-.75-.5-1.27,0-.65.26-1.11.54-1.39.29-.29.75-.49,1.25-.49.56,0,.89.29,1.04.45v-.33Zm-1.3,1.16c-.17.16-.25.39-.25.57,0,.2.09.42.24.57.13.12.35.23.56.23s.4-.09.56-.24c.11-.11.23-.28.23-.56,0-.16-.05-.38-.24-.57-.12-.11-.29-.22-.56-.22-.16,0-.36.05-.54.22Z"/>
        <path class="cls-1" d="m124.93,37.97v5.65h-1.24v-5.65h1.24Z"/>
        <path class="cls-1" d="m127.01,40.16v1.94c0,.14.02.36.19.5.12.11.29.13.43.13.16,0,.3-.02.44-.15.16-.16.18-.33.18-.49v-1.94h1.24v2.16c0,.29-.02.61-.33.93-.43.44-1.02.49-1.5.49-.52,0-1.16-.05-1.57-.5-.26-.28-.33-.59-.33-.92v-2.16h1.24Z"/>
        <path class="cls-1" d="m134.02,42.12h-2.58c0,.19.07.43.22.58.08.08.23.17.51.17.03,0,.25,0,.4-.09.08-.05.16-.12.22-.23h1.19c-.05.19-.16.47-.42.71-.26.25-.66.48-1.41.48-.46,0-1.01-.1-1.43-.53-.22-.22-.51-.65-.51-1.31,0-.58.22-1.05.52-1.34.29-.28.74-.5,1.42-.5.4,0,.92.09,1.33.47.49.47.55,1.07.55,1.46v.13Zm-1.14-.71c-.03-.13-.11-.28-.2-.37-.16-.16-.39-.19-.51-.19-.21,0-.37.05-.5.19-.09.09-.16.22-.19.37h1.4Z"/>
        <path class="cls-1" d="m134.96,42.48c.15.11.33.2.5.26.15.05.35.09.48.09.09,0,.24-.02.32-.09.05-.05.06-.1.06-.16,0-.05,0-.11-.06-.15-.08-.07-.2-.09-.33-.12l-.33-.08c-.17-.04-.42-.1-.6-.3-.13-.14-.22-.33-.22-.6,0-.33.13-.64.33-.85.26-.27.73-.42,1.24-.42s.91.14,1.11.22l-.42.79c-.17-.08-.43-.17-.65-.17-.12,0-.21.02-.29.07-.07.04-.11.09-.11.17,0,.11.07.16.15.19.12.05.22.05.41.1l.23.06c.16.05.41.17.51.27.17.16.26.43.26.69,0,.42-.18.7-.35.86-.4.4-.99.43-1.28.43-.31,0-.8-.04-1.4-.4l.44-.86Z"/>
      </g>
    </g>
    <g>
      <polygon class="cls-1" points="26.53 10.27 19.05 28.8 14.17 18.08 9.37 28.81 1.92 10.27 5.75 10.27 9.68 20.81 14.17 10.27 18.82 20.75 22.66 10.27 26.53 10.27"/>
      <polygon class="cls-1" points="45.36 10.27 45.36 28.81 41.55 28.81 41.55 20.27 33.85 20.27 33.85 28.81 30.04 28.81 30.04 10.27 33.85 10.27 33.85 16.75 41.55 16.75 41.55 10.27 45.36 10.27"/>
      <rect class="cls-1" x="48.88" y="10.27" width="3.81" height="18.55"/>
      <polygon class="cls-1" points="69.34 10.27 69.34 13.65 64.69 13.65 64.69 28.81 60.88 28.81 60.88 13.65 56.2 13.65 56.2 10.27 69.34 10.27"/>
      <polygon class="cls-1" points="76.67 13.65 76.67 17.1 83.62 17.1 83.62 20.57 76.67 20.57 76.67 25.3 83.62 25.3 83.62 28.81 72.85 28.81 72.85 10.27 83.62 10.27 83.62 13.65 76.67 13.65"/>
      <path class="cls-1" d="m141.68,10.27v18.55l-13.1-10.99v10.99h-3.59V10.27s13.03,10.96,13.09,11.02v-11.02h3.6Z"/>
      <path class="cls-1" d="m160.88,17.24c-.14-.73-.34-1.41-.62-2.05-.55-1.29-1.38-2.36-2.46-3.18-.82-.63-1.78-1.09-2.86-1.35-1.07-.26-2.84-.39-5.41-.39h-4.33v18.55h5.1c2.13,0,3.67-.13,4.7-.39,1.04-.27,1.98-.72,2.8-1.35,1.08-.83,1.9-1.9,2.46-3.17.55-1.26.83-2.72.83-4.34,0-.81-.07-1.58-.21-2.31Zm-9.94,8.03h-1.93v-11.49h1.59c1.43,0,2.48.08,3.13.25.62.16,1.16.42,1.59.79.6.52,1.06,1.17,1.36,1.93.31.79.47,1.72.47,2.78,0,.53-.04,1.03-.12,1.49-.08.46-.19.89-.35,1.29-.3.77-.76,1.42-1.36,1.93-.43.37-.95.64-1.54.79-.62.16-1.58.25-2.85.25Z"/>
      <polygon class="cls-1" points="90.95 25.3 97.34 25.3 97.34 28.81 87.13 28.81 87.13 10.27 90.95 10.27 90.95 25.3"/>
      <g>
        <path class="cls-1" d="m112.27,21.22l.81,1.61c-4.41-.73-8.72,1.09-12.23,3.82,2.12-3.11,5.77-5.26,9.55-5.48.62-.04,1.25-.02,1.88.04Z"/>
        <path class="cls-1" d="m121.49,26.75c-.63-.4-1.21-.82-1.84-1.2-.45-.31-1.07-.63-1.55-.91-.08-.04-.16-.08-.24-.12l-.76-1.68c1.73,1.01,3.21,2.35,4.38,3.9Z"/>
        <path class="cls-1" d="m102.54,28.81l1.97-4.24.04-.02c1.39-.7,2.79-1.18,4.17-1.44l.26-.05-2.68,5.75h-3.77Z"/>
        <path class="cls-1" d="m116.03,28.81l-4.86-10.44-1.22,2.62h-.08c-1.34.15-2.67.52-3.94,1.11l-.34.16,5.54-12,8.66,18.55h-3.77Z"/>
      </g>
    </g>
  </g>
  <g>
    <path class="cls-1" d="m159.27,10.48v1.05h-.24v-1.05h-.28v-.21h.81v.21h-.28Z"/>
    <path class="cls-1" d="m159.84,10.27h.18l.33.8.35-.8h.18l.21,1.26h-.25l-.11-.77-.34.77h-.08l-.32-.77-.13.77h-.25l.23-1.26Z"/>
  </g>
</svg>